<?xml version="1.0" encoding="UTF-8"?><svg xmlns="http://www.w3.org/2000/svg" viewBox="0 0 1283.56 1139.94"><defs><style>.cls-1,.cls-2{fill:#fff;}.cls-3,.cls-4,.cls-2,.cls-5{stroke:#000;}.cls-3,.cls-4,.cls-5{stroke-miterlimit:10;}.cls-3,.cls-5{fill:none;}.cls-4{fill:#200100;}.cls-4,.cls-2{stroke-width:.5px;}.cls-2{stroke-linecap:round;stroke-linejoin:round;}.cls-6{fill:#37913a;}.cls-5{stroke-width:.25px;}.cls-7{fill:#c12f00;}.cls-8{fill:#379060;}.cls-9{fill:#00af2c;}.cls-10{fill:#024c01;}</style></defs><g id="Hat"><g><g><path class="cls-1" d="M684.08,690.08c4.54,11.23,9.71,28.34,4.81,34.57-4.9,6.24-12.83,8.56-23.61,3.21-10.79-5.34-19.07-12.74-21.3-17.02-2.23-4.27-9.71-17.28-11.67-20.14-1.96-2.85-7.93-8.73-11.59-9-3.65-.26-9.37,2.65-9.37,2.65,.27-1.54,.34-2.86,.11-3.8-1.39-5.62-40.82-25.18-43.13-26.51-2.32-1.34-28.7-11.05-30.12-11.54-1.43-.49-9.4-3.21-15.73-2.99-4.09,.15-9.33,2.58-12.82,4.52,0,0-8.14-9.97-8.61-11.34l-.48-1.36s-7.01-14.91-7.18-15.63c-.18-.71-.12-1.01,0-1.42,.11-.42-1.73-7.96-2.02-9.03l-.3-1.07s1.01-6.71,1.31-7.19c.29-.47,.47-.71,.47-.71,0,0,3.92-1.9,4.34-1.96l.41-.06s8.62,2.67,9.45,3.27c.83,.59,8.08,3.83,9.55,3.93,5.17,.36,14.57-2.94,18.71-3.07,0,0,6.11,.26,8.96,1.69s16.71,11.45,17.82,12.21,11.76,5.61,14.43,5.52c2.68-.09,16.36-.84,17.16-1.11s13.23-3.03,15.64-2.94c2.4,.09,15.32,1.02,27.35,12.07,12.03,11.05,13.1,18.63,13.99,20.94,.89,2.32,9.72,16.04,13.1,19.25,3.39,3.21,15.77,12.83,20.32,24.06Z"/><path class="cls-1" d="M611.46,680.55c.23,.94,.16,2.26-.11,3.8-1.35,7.62-7.77,20.67-7.92,20.43-.19-.29-113.5-25.04-113.5-25.04,0,0-.66-1.24,0-1.69,.65-.44,6.84-5.03,7.6-5.93,.76-.89,2.36-3.92,2.27-5.03s5.13-19.87,6.19-20.76c.38-.32,1.76-1.23,3.67-2.3,3.49-1.94,8.73-4.37,12.82-4.52,6.33-.22,14.3,2.5,15.73,2.99,1.42,.49,27.8,10.2,30.12,11.54,2.31,1.33,41.74,20.89,43.13,26.51Z"/></g><g><path class="cls-5" d="M611.35,684.35c-1.35,7.62-7.77,20.67-7.92,20.43-.19-.29-113.5-25.04-113.5-25.04,0,0-.66-1.24,0-1.69,.65-.44,6.84-5.03,7.6-5.93,.76-.89,2.36-3.92,2.27-5.03s5.13-19.87,6.19-20.76c.38-.32,1.76-1.23,3.67-2.3,3.49-1.94,8.73-4.37,12.82-4.52,6.33-.22,14.3,2.5,15.73,2.99,1.42,.49,27.8,10.2,30.12,11.54,2.31,1.33,41.74,20.89,43.13,26.51,.23,.94,.16,2.26-.11,3.8Z"/><path class="cls-5" d="M509.66,644.03s-8.14-9.97-8.61-11.34l-.48-1.36s-7.01-14.91-7.18-15.63c-.18-.71-.12-1.01,0-1.42,.11-.42-1.73-7.96-2.02-9.03l-.3-1.07s1.01-6.71,1.31-7.19c.29-.47,.47-.71,.47-.71,0,0,3.92-1.9,4.34-1.96l.41-.06s8.62,2.67,9.45,3.27c.83,.59,8.08,3.83,9.55,3.93,5.17,.36,14.57-2.94,18.71-3.07,0,0,6.11,.26,8.96,1.69s16.71,11.45,17.82,12.21,11.76,5.61,14.43,5.52c2.68-.09,16.36-.84,17.16-1.11s13.23-3.03,15.64-2.94c2.4,.09,15.32,1.02,27.35,12.07,12.03,11.05,13.1,18.63,13.99,20.94,.89,2.32,9.72,16.04,13.1,19.25,3.39,3.21,15.77,12.83,20.32,24.06,4.54,11.23,9.71,28.34,4.81,34.57-4.9,6.24-12.83,8.56-23.61,3.21-10.79-5.34-19.07-12.74-21.3-17.02-2.23-4.27-9.71-17.28-11.67-20.14-1.96-2.85-7.93-8.73-11.59-9-3.65-.26-9.37,2.65-9.37,2.65"/></g></g></g><g id="Gerry_copy"><g><g><path class="cls-8" d="M615.99,731.11c1,4,2,6,1,8l-5,10c-1,2-2,5-2,6s4,7,4,11-10,14-11,15-9,6-11,9-3,7-8,9-13,4-15,4-11-4-15-4h-11c-1,0-13.06,4-15.03,4-1.79,0-6.88-3.29-10.05-3.9l.28-1.32c3.56,.72,7.87,1.22,12.8,1.22,14,0,33-14,36-16s8-3,11-5,6-9,6-11c0-1.62-3.3-7.87-5.07-10.69l1.07-.31c5,1,7-3,8-5s0-5,1-9,6-6,9-8,7-5,8-6c.64-.64,1.69-4.54,2.36-7.8,0,0,6.64,6.8,7.64,10.8Z"/><path class="cls-9" d="M608.99,716.11c0,.72-.26,2.36-.64,4.2-.67,3.26-1.72,7.16-2.36,7.8-1,1-5,4-8,6s-8,4-9,8,0,7-1,9-3,6-8,5l-1.07,.31c-.41-.65-.74-1.12-.93-1.31-1-1-12-9-15-9s-13,6-16,6c-2.83,0-2.99-1.78-9.69-1.98h-.05c-1.72-.06-5.26-4.03-5.26-6.02s4-5,7-5,8,3,13,3,11-4,11-9-2-7-2-7l-1-1c-1,0-3-2-4-3s-8-5-8-5l27,1s-21-10-31-12-16-10-18-12-3.56-7.11-3.56-7.11c1.55-2.14,3.76-5.14,4.39-5.77l4-4s-.07-.15-.2-.42c0,0,9.37-5.7,13.37-5.7s7,6,8,7,6,4,8,5,8,0,10,0,9,3,12,6l5,5c1,1,14,7,16,10s6,10,6,12Z"/><path class="cls-10" d="M500.77,745.13c1.01,.42,1.79,.77,2.22,.98,2,1,14,10,17,10s8-6,16-6c.44,0,.86,.01,1.26,.02h.05c6.7,.2,6.86,1.98,9.69,1.98,3,0,13-6,16-6s14,8,15,9c.19,.19,.52,.66,.93,1.31,1.77,2.82,5.07,9.07,5.07,10.69,0,2-3,9-6,11s-8,3-11,5-22,16-36,16c-4.93,0-9.24-.5-12.8-1.22-6.55-1.35-10.55-3.48-11.2-4.78-1-2-2-10-6-11s-11-1-13-2-9-9-10-10-9-10-9-14l4-8c3,0,12-7,15-7,2.36,0,9.06,2.48,12.78,4.02Z"/><path class="cls-6" d="M574.99,718.11l-27-1s7,4,8,5,3,3,4,3l1,1s2,2,2,7-6,9-11,9-10-3-13-3-7,3-7,5,3.54,5.96,5.26,6.02c-.4-.01-.82-.02-1.26-.02-8,0-13,6-16,6s-15-9-17-10c-.43-.21-1.21-.56-2.22-.98,2.59-.3,6.1-4.03,6.1-6.92s-6-7-9-7-7,3-13,3-10-4-10-8,4.06-4.72,4.06-4.72l2.94-2.28c2-1,11.44-7.11,12.43-7.11l-1.98,.1c-.5-.25-1.25-.19-1.81-.22l-14.64-.77c2-1,25-9,27-10s17.73-15.13,17.73-15.13h.12c.1,1.73,.1,3.15,.1,3.15,0,0,.69-.96,1.61-2.23,0,0,1.56,5.11,3.56,7.11s8,10,18,12,31,12,31,12Z"/><path class="cls-7" d="M530.62,676.81c.13,.27,.2,.42,.2,.42l-4,4c-.63,.63-2.84,3.63-4.39,5.77-.92,1.27-1.61,2.23-1.61,2.23,0,0,0-1.42-.1-3.16-.1-2.13-.35-4.74-.9-5.84-1-2-2-5-2-5,.05-.05,.1-.1,.16-.17,1.13-1.21,3.89-4.93,4.84-6.83s4.75-8.57,4.99-8.98c-.99,2.02-.99,7.99,.01,10.98,.81,2.41,2.26,5.48,2.8,6.58Z"/><path class="cls-9" d="M520.72,686.07h-.12s-15.73,14.14-17.73,15.14-25,9-27,10l14.64,.77c.56,.03,1.31-.03,1.81,.22l1.98-.1c-.99,0-10.43,6.11-12.43,7.11l-2.94,2.28s-4.06,.72-4.06,4.72,4,8,10,8,10-3,13-3,9,4,9,7-3.51,6.62-6.1,6.92c-3.72-1.54-10.42-4.02-12.78-4.02-3,0-12,7-15,7s-8-7-8-12,4.03-12.15,4.03-12.15h0c.13-.07,.25-.16,.34-.27,.42-.51,1.13-1.5,1.81-2.95,1.01-2.14,.77-4.59-.23-6.73-.95-2.04-.95-5.95-.95-8.9s1-7,3-10,9-8,10-9,4-5,6-6,9-2,11-3,4-4,6-5,5-2,6-2,5.99,4.95,5.99,4.95c-.06,.07-.11,.12-.16,.17,0,0,1,3,2,5,.55,1.1,.8,3.71,.9,5.84Z"/><path class="cls-8" d="M518.19,797.89l-.28,1.32c-.33-.06-.64-.1-.92-.1-3,0-7,2-11,2s-10-2-12-4-5-11-7-12-11-3-13-5-2-2-3-4,0-6-1-8-2-3-4-4-7-3-7-5,1-6,2-7,2-4,2-6,0-7-1-9-2-4-2-5c0-2.88,5.51-8.51,8.61-8.09,.15,.02,.29-.01,.42-.07h0s-4.03,7.16-4.03,12.16,5,12,8,12l-4,8c0,4,8,13,9,14s8,9,10,10,9,1,13,2,5,9,6,11c.65,1.3,4.65,3.43,11.2,4.78Z"/></g><path class="cls-5" d="M530.82,677.23s-.08-.15-.2-.42c-.54-1.1-1.99-4.17-2.8-6.58-1-3-1-9,0-11,0,0-4,7-5,9s-4,6-5,7c0,0,1,3,2,5s1,9,1,9c0,0,5-7,6-8l4-4Z"/><path class="cls-5" d="M530.61,676.81s9.37-5.7,13.37-5.7,7,6,8,7,6,4,8,5,8,0,10,0,9,3,12,6l5,5c1,1,14,7,16,10s6,10,6,12-2,11-3,12-5,4-8,6-8,4-9,8,0,7-1,9-3,6-8,5"/><path class="cls-5" d="M517.98,675.06s-4.99-4.95-5.99-4.95-4,1-6,2-4,4-6,5-9,2-11,3-5,5-6,6-8,6-10,9-3,7-3,10,0,6.86,.95,8.9c1,2.15,1.24,4.59,.23,6.74-.68,1.45-1.39,2.43-1.81,2.95-.18,.23-.47,.37-.76,.33-3.1-.42-8.61,5.21-8.61,8.09,0,1,1,3,2,5s1,7,1,9-1,5-2,6-2,5-2,7,5,4,7,5,3,2,4,4,0,6,1,8,1,2,3,4,11,4,13,5,5,10,7,12,8,4,12,4,8-2,11-2,9,4,10.97,4,14.03-4,15.03-4h11c4,0,13,4,15,4s10-2,15-4,6-6,8-9,10-8,11-9,11-11,11-15-4-10-4-11,1-4,2-6l5-10c1-2,0-4-1-8s-7.64-10.8-7.64-10.8"/><path class="cls-5" d="M469.01,723.95s-4.03,7.15-4.03,12.15,5,12,8,12,12-7,15-7,13,4,15,5,14,10,17,10,8-6,16-6,8,2,11,2,13-6,16-6,14,8,15,9,6,10,6,12-3,9-6,11-8,3-11,5-22,16-36,16-23-4-24-6-2-10-6-11-11-1-13-2-9-9-10-10-9-10-9-14l4-8"/><path class="cls-5" d="M522.43,687s1.56,5.11,3.56,7.11,8,10,18,12,31,12,31,12l-27-1s7,4,8,5,3,3,4,3l1,1s2,2,2,7-6,9-11,9-10-3-13-3-7,3-7,5,3.61,6.04,5.31,6.02"/><path class="cls-5" d="M500.48,745.16c2.61-.05,6.39-3.95,6.39-6.95s-6-7-9-7-7,3-13,3-10-4-10-8,4.06-4.72,4.06-4.72l2.94-2.28c2-1,11.44-7.11,12.43-7.11l-1.98,.1c-.5-.25-1.25-.19-1.8-.22l-14.64-.77c2-1,25-9,27-10s17.74-15.13,17.74-15.13"/></g><path class="cls-3" d="M497.26,711.41c2.36,1.36,12.68,4.35,9.96,7.07s-10.59,7.23-12.7,7.23"/><path class="cls-3" d="M539.74,711.41c-2.36,1.36-12.68,4.35-9.96,7.07s10.59,7.23,12.7,7.23"/></g><g id="Mouth"><path class="cls-4" d="M528.65,769.51c-1.06-.11-2.51-.42-3.88-.79-1.84-.49-3.55-1.06-4.05-1.35-.88-.51-4.43-3-5.41-2.97s-4.75,.96-5.43,1.57-1.57,2.51-1.63,3.08,10.71,11.25,19.13,11.26c8.42,.01,21.34-7.49,22.09-9.35s-3-3.41-4.33-3.44-8.31,.88-10.02,1.56-4.81,.6-6.47,.43Z"/><path class="cls-2" d="M532.1,779.49s1.98-2.73,2.05-3.86-.82-4.79-1.14-4.83-2.27,3.84-2.27,4.35,1.18,3.96,1.36,4.35Z"/><path class="cls-2" d="M523.92,779.49h0s1.16-2.19,1.25-3.08-.69-5.01-1.09-4.99-1.85,4.12-1.83,4.88,1.38,2.81,1.67,3.19Z"/></g></svg>